<?xml version="1.0" encoding="UTF-8"?>
<svg xmlns="http://www.w3.org/2000/svg" xmlns:xlink="http://www.w3.org/1999/xlink" version="0,5" width="3300px" height="270px" style="shape-rendering:geometricPrecision; text-rendering:geometricPrecision; image-rendering:optimizeQuality; fill-rule:evenodd; clip-rule:evenodd">
  <g>
    <path style="opacity:0.97" fill="#000000" d="M 1407.5,-0.5 C 1415.17,-0.5 1422.83,-0.5 1430.5,-0.5C 1439.04,1.59717 1447.04,5.09717 1454.5,10C 1465.45,20.7592 1467.95,33.2592 1462,47.5C 1458.49,54.6771 1453.82,61.0104 1448,66.5C 1444.28,71.7896 1445.11,76.2896 1450.5,80C 1460.95,85.2623 1471.95,88.929 1483.5,91C 1499.7,94.3674 1516.04,96.8674 1532.5,98.5C 1540.13,98.3402 1547.46,96.8402 1554.5,94C 1578.57,48.8589 1616.41,25.6923 1668,24.5C 1712.19,25.0949 1747.19,43.0949 1773,78.5C 1775.92,83.3413 1778.59,88.3413 1781,93.5C 1790.07,97.5099 1799.57,99.0099 1809.5,98C 1828.36,95.7456 1847.03,92.4122 1865.5,88C 1872.13,86.4568 1878.46,84.1235 1884.5,81C 1890.37,77.9134 1891.87,73.4134 1889,67.5C 1886.37,63.8683 1883.37,60.535 1880,57.5C 1864.43,33.6858 1869.26,15.5192 1894.5,3C 1898.62,1.80766 1902.62,0.640996 1906.5,-0.5C 1913.83,-0.5 1921.17,-0.5 1928.5,-0.5C 1945.48,4.35834 1955.31,15.6917 1958,33.5C 1960.32,49.863 1955.49,63.6963 1943.5,75C 1925.95,88.94 1906.29,98.94 1884.5,105C 1853.23,113.287 1821.57,119.453 1789.5,123.5C 1789.5,130.833 1789.5,138.167 1789.5,145.5C 1820.16,149.598 1850.49,155.431 1880.5,163C 1901.07,168.404 1920.07,177.071 1937.5,189C 1961.11,208.501 1964.94,231.334 1949,257.5C 1943.45,263.186 1936.95,267.186 1929.5,269.5C 1921.5,269.5 1913.5,269.5 1905.5,269.5C 1871.11,260.838 1862.94,241.172 1881,210.5C 1894.74,199.783 1893.57,191.283 1877.5,185C 1849.47,175.882 1820.8,171.549 1791.5,172C 1787.99,172.67 1784.66,173.837 1781.5,175.5C 1757.59,220.64 1719.92,243.64 1668.5,244.5C 1623.14,244.077 1587.64,225.41 1562,188.5C 1559.97,184.48 1557.97,180.48 1556,176.5C 1548.89,172.639 1541.23,170.639 1533,170.5C 1512.3,172.839 1491.8,176.339 1471.5,181C 1462.37,182.925 1454.2,186.758 1447,192.5C 1445.03,195.998 1445.37,199.332 1448,202.5C 1461.46,213.877 1466.79,228.211 1464,245.5C 1460.17,254.667 1453.67,261.167 1444.5,265C 1440.11,266.671 1435.77,268.171 1431.5,269.5C 1423.5,269.5 1415.5,269.5 1407.5,269.5C 1389.92,264.067 1380.09,252.067 1378,233.5C 1376.9,216.204 1383.06,202.038 1396.5,191C 1413.52,178.827 1432.18,169.827 1452.5,164C 1483.76,155.714 1515.43,149.547 1547.5,145.5C 1546.51,138.245 1546.18,131.079 1546.5,124C 1511.28,119.222 1476.61,111.889 1442.5,102C 1420.93,95.729 1402.43,84.5624 1387,68.5C 1375.12,51.3379 1374.45,33.6712 1385,15.5C 1390.59,7.30594 1398.09,1.9726 1407.5,-0.5 Z M 1658.5,43.5 C 1699.82,41.4107 1732.32,57.0774 1756,90.5C 1775.77,127.362 1772.1,161.695 1745,193.5C 1710.16,225.934 1670.33,233.767 1625.5,217C 1580.43,195.696 1562.26,160.529 1571,111.5C 1582.4,79.1024 1604.57,57.9358 1637.5,48C 1644.57,46.1547 1651.57,44.6547 1658.5,43.5 Z M 1659.5,100.5 C 1680.94,97.7987 1696.11,106.132 1705,125.5C 1708.27,145.578 1700.43,159.411 1681.5,167C 1659.27,172.795 1642.77,165.629 1632,145.5C 1627.76,122.253 1636.92,107.253 1659.5,100.5 Z"></path>
  </g>
  <g>
    <path style="opacity:0.951" fill="#000000" d="M -0.5,145.5 C -0.5,138.167 -0.5,130.833 -0.5,123.5C 309.167,123.667 618.834,123.5 928.5,123C 938.419,93.1079 959.253,77.6079 991,76.5C 1018.57,76.9342 1038.57,89.2676 1051,113.5C 1052.35,116.72 1053.19,120.053 1053.5,123.5C 1082.17,123.5 1110.83,123.5 1139.5,123.5C 1146.87,89.9565 1167.2,68.4565 1200.5,59C 1234.6,51.1541 1264.44,58.9874 1290,82.5C 1316.05,113.348 1318.05,145.681 1296,179.5C 1271.63,207.291 1241.13,217.791 1204.5,211C 1172.96,203.789 1151.79,184.956 1141,154.5C 1140.05,151.568 1139.55,148.568 1139.5,145.5C 1111.16,145.333 1082.83,145.5 1054.5,146C 1044.41,176.064 1023.41,191.564 991.5,192.5C 959.587,191.564 938.587,176.064 928.5,146C 618.834,145.5 309.167,145.333 -0.5,145.5 Z M 1213.5,75.5 C 1240.13,72.5338 1261.96,81.2004 1279,101.5C 1296.37,129.483 1293.2,154.983 1269.5,178C 1245.1,195.974 1219.1,198.64 1191.5,186C 1162.49,168.476 1153.32,143.643 1164,111.5C 1175.02,91.9834 1191.52,79.9834 1213.5,75.5 Z"></path>
  </g>
  <g>
    <path style="opacity:0.951" fill="#000000" d="M 3336.5,123.5 C 3336.5,130.833 3336.5,138.167 3336.5,145.5C 3026.83,145.167 2717.17,145.5 2407.5,146.5C 2397.35,176.125 2376.52,191.458 2345,192.5C 2322,192.169 2303.67,182.835 2290,164.5C 2286.37,158.583 2283.87,152.25 2282.5,145.5C 2254.16,145.167 2225.83,145.5 2197.5,146.5C 2187.8,183.367 2164.14,205.201 2126.5,212C 2092.92,216.619 2064.75,206.452 2042,181.5C 2024.98,159.376 2020.98,135.043 2030,108.5C 2043.32,78.8696 2066.15,61.703 2098.5,57C 2134.18,52.7748 2163.02,64.6081 2185,92.5C 2191.25,101.832 2195.42,111.999 2197.5,123C 2225.83,123.5 2254.16,123.667 2282.5,123.5C 2288.91,100.59 2303.58,85.7566 2326.5,79C 2354.28,72.4835 2377.78,79.6502 2397,100.5C 2401.84,107.174 2405.34,114.508 2407.5,122.5C 2717.17,123.5 3026.83,123.833 3336.5,123.5 Z M 2101.5,75.5 C 2126.78,72.976 2147.94,80.976 2165,99.5C 2185.6,132.757 2180.1,160.923 2148.5,184C 2114.36,201.276 2084.19,196.11 2058,168.5C 2038.23,135.349 2044.06,107.515 2075.5,85C 2083.76,80.352 2092.43,77.1853 2101.5,75.5 Z"></path>
  </g>
  <g>
    <path style="opacity:0.953" fill="#000000" d="M 1656.5,81.5 C 1680,78.4963 1699.83,85.4963 1716,102.5C 1733.66,129.682 1730.5,154.182 1706.5,176C 1683.14,191.39 1659.14,192.39 1634.5,179C 1610.57,162.218 1603.74,140.052 1614,112.5C 1623.64,95.9328 1637.81,85.5995 1656.5,81.5 Z M 1659.5,100.5 C 1636.92,107.253 1627.76,122.253 1632,145.5C 1642.77,165.629 1659.27,172.795 1681.5,167C 1700.43,159.411 1708.27,145.578 1705,125.5C 1696.11,106.132 1680.94,97.7987 1659.5,100.5 Z"></path>
  </g>
  <g>
    <path style="opacity:0.975" fill="#000000" d="M 1217.5,103.5 C 1235.41,101.171 1248.58,107.838 1257,123.5C 1261.93,141.477 1256.09,154.644 1239.5,163C 1218.74,169.974 1202.91,164.14 1192,145.5C 1187.48,123.523 1195.98,109.523 1217.5,103.5 Z"></path>
  </g>
  <g>
    <path style="opacity:0.97" fill="#000000" d="M 2104.5,103.5 C 2123.56,101.107 2137.06,108.441 2145,125.5C 2148.79,146.052 2140.62,159.219 2120.5,165C 2101.39,168.43 2087.56,161.596 2079,144.5C 2075.02,122.993 2083.52,109.326 2104.5,103.5 Z"></path>
  </g>
</svg>
