<?xml version="1.0" encoding="UTF-8" standalone="no"?>
<svg xmlns="http://www.w3.org/2000/svg" version="1.0" width="1926.000000pt" height="3042.000000pt" viewBox="0 0 1926.000000 3042.000000" preserveAspectRatio="xMidYMid meet">
  <g transform="translate(0.000000,3042.000000) scale(0.100000,-0.100000)" fill="#000000" stroke="none">
    <path d="M1700 30392 c-77 -36 -152 -39 -291 -12 -85 17 -132 21 -193 17 -131 -9 -168 -27 -271 -131 -131 -132 -175 -229 -175 -385 l0 -74 -24 22 c-13 13 -34 42 -46 64 l-22 42 31 109 c53 184 44 199 -95 166 -47 -11 -95 -20 -106 -20 -33 0 -153 68 -203 116 -53 50 -81 55 -113 21 -29 -31 -28 -63 10 -176 27 -83 32 -111 33 -211 2 -151 20 -190 91 -190 24 0 76 21 121 50 12 8 24 12 26 10 2 -3 16 -23 30 -45 l27 -40 -57 -12 c-189 -43 -359 -213 -403 -402 -32 -139 9 -336 112 -532 l50 -96 -18 -84 c-12 -56 -18 -127 -18 -214 0 -112 3 -137 22 -183 14 -34 22 -73 22 -111 0 -75 -22 -106 -82 -114 -83 -11 -110 -89 -73 -214 19 -65 45 -89 77 -72 77 41 264 267 275 332 3 24 -4 54 -26 105 -90 212 -51 423 101 542 104 83 257 113 434 85 175 -27 255 -30 292 -11 36 18 62 62 62 102 0 37 -53 86 -125 115 -53 20 -76 23 -195 23 -125 0 -150 -3 -344 -47 -237 -55 -218 -58 -256 42 -33 85 -43 147 -38 240 7 139 57 223 153 259 53 20 177 31 275 25 135 -8 135 -9 136 196 1 177 14 239 66 317 64 95 180 144 261 110 l37 -15 -52 -83 c-115 -186 -185 -374 -195 -530 l-6 -88 -86 0 c-262 -1 -428 -124 -485 -362 -8 -35 12 -37 67 -8 175 94 510 106 694 25 62 -28 83 -31 101 -13 17 17 15 41 -14 153 -54 213 -42 393 39 590 68 163 117 227 262 339 139 109 208 179 226 233 9 29 9 37 -2 44 -23 15 -61 9 -119 -19z"></path>
    <path d="M17443 30413 c-18 -7 -16 -28 6 -71 27 -52 79 -103 202 -198 128 -99 175 -151 227 -252 126 -244 147 -439 76 -716 l-25 -99 20 -21 c21 -20 21 -20 68 -2 117 45 179 58 308 63 153 6 276 -15 392 -66 92 -40 97 -40 89 7 -12 65 -63 160 -117 217 -86 91 -204 135 -364 135 l-90 0 -1 68 c-2 155 -73 350 -203 562 -49 80 -42 95 47 94 101 0 181 -59 236 -174 30 -64 31 -69 36 -248 6 -224 1 -217 134 -208 50 3 126 1 170 -5 174 -21 244 -92 262 -264 10 -100 -28 -268 -74 -325 l-17 -21 -130 30 c-236 54 -336 71 -424 71 -149 0 -273 -47 -306 -117 -14 -28 -14 -37 -2 -65 33 -78 101 -93 278 -62 279 49 476 -4 579 -158 51 -77 70 -142 70 -244 0 -81 -9 -120 -58 -254 -18 -49 -19 -58 -6 -88 48 -117 254 -333 300 -315 39 15 74 159 55 224 -13 42 -50 69 -96 69 -61 0 -89 78 -61 175 45 157 48 184 37 300 -7 61 -17 137 -24 169 l-12 60 61 121 c162 322 149 552 -40 752 -76 81 -188 146 -271 159 -25 3 -45 8 -45 10 0 6 52 84 55 84 2 0 29 -13 60 -30 71 -37 113 -39 145 -5 22 23 24 37 31 163 6 114 12 152 38 230 37 111 38 126 6 157 -35 36 -57 31 -121 -25 -32 -28 -86 -65 -121 -82 -67 -33 -65 -33 -197 -4 -86 19 -106 11 -106 -42 0 -20 11 -73 25 -117 32 -104 32 -132 -5 -187 -48 -72 -56 -74 -52 -17 10 139 -46 282 -159 403 -131 140 -250 172 -479 126 -141 -28 -222 -24 -297 14 -50 25 -83 31 -110 19z"></path>
    <path d="M2785 30344 c-11 -9 -62 -37 -114 -62 -109 -54 -157 -58 -305 -29 -183 35 -368 14 -510 -61 -181 -95 -334 -315 -407 -589 -26 -95 -31 -279 -10 -363 19 -75 72 -188 110 -230 42 -48 55 -30 44 60 -4 36 -8 137 -7 225 0 151 2 165 31 252 68 205 200 375 343 442 77 36 193 41 270 12 111 -42 185 -120 217 -231 28 -97 -10 -290 -80 -408 -61 -102 -144 -133 -265 -97 -102 31 -165 135 -86 143 24 2 41 -6 75 -34 69 -58 87 -63 111 -34 18 22 20 36 16 119 -5 91 -4 96 29 169 44 94 50 130 29 170 -30 59 -131 106 -175 82 -30 -15 -40 -40 -56 -131 -17 -94 -26 -109 -69 -109 -87 0 -169 -112 -191 -264 -29 -191 212 -369 442 -327 200 37 334 200 400 486 11 48 16 123 17 243 l1 172 71 70 c79 77 113 137 121 216 7 63 -3 124 -20 124 -7 0 -21 -8 -32 -16z"></path>
    <path d="M16420 30319 c-25 -91 26 -217 120 -299 32 -28 62 -60 65 -71 4 -12 8 -100 10 -197 3 -207 20 -294 87 -432 47 -98 143 -202 219 -238 175 -84 418 -22 513 132 41 65 46 148 17 244 -35 117 -98 182 -174 182 -41 0 -52 19 -67 115 -14 87 -25 113 -55 127 -37 17 -101 -6 -147 -52 -50 -49 -50 -85 -2 -197 35 -81 36 -88 30 -163 -6 -59 -4 -86 8 -114 19 -46 42 -46 98 0 55 47 80 58 112 50 34 -8 34 -35 0 -76 -60 -71 -193 -101 -271 -62 -97 50 -166 201 -179 392 -5 72 -3 94 15 141 29 75 85 138 163 180 60 32 68 34 163 34 89 0 106 -3 157 -28 106 -52 215 -172 287 -314 80 -159 110 -379 77 -554 -16 -86 -11 -139 13 -139 15 0 88 116 111 177 35 94 43 150 37 277 -7 172 -51 314 -150 482 -95 163 -229 273 -392 324 -99 31 -261 37 -385 15 -52 -9 -113 -19 -135 -22 -52 -6 -147 25 -247 83 -42 24 -79 44 -82 44 -3 0 -10 -19 -16 -41z"></path>
    <path d="M3345 30236 c-117 -27 -192 -65 -259 -132 -146 -147 -220 -394 -170 -565 52 -178 182 -299 321 -299 95 0 169 68 244 224 27 56 49 106 49 111 0 25 63 85 98 95 25 7 1945 10 6007 10 l5971 0 43 -22 c48 -25 51 -30 130 -198 95 -204 203 -263 351 -194 124 57 230 235 230 387 0 74 -31 193 -75 284 -96 198 -240 294 -465 309 -137 10 -305 -30 -334 -79 -18 -30 15 -44 118 -51 253 -19 420 -99 517 -248 72 -112 89 -269 41 -365 -28 -54 -56 -73 -110 -73 -50 0 -83 28 -103 87 -11 34 -10 36 41 88 46 47 51 56 46 82 -8 35 -49 77 -89 92 -16 6 -50 11 -77 11 -46 0 -53 3 -92 47 -24 25 -61 54 -83 64 -39 18 -251 19 -6059 19 -4539 0 -6028 -3 -6057 -12 -45 -13 -115 -69 -124 -98 -5 -17 -16 -20 -63 -21 -78 0 -122 -17 -149 -58 -26 -38 -30 -89 -8 -97 8 -3 30 -25 50 -50 l36 -43 -20 -40 c-27 -51 -56 -71 -106 -71 -54 0 -78 19 -104 81 -30 69 -31 181 -3 261 72 203 244 312 536 340 93 9 126 16 141 30 19 18 19 18 -2 39 -51 52 -294 83 -418 55z"></path>
    <path d="M2710 29435 c-7 -8 -18 -55 -24 -105 -15 -104 -30 -127 -112 -166 -60 -28 -80 -61 -58 -93 13 -18 25 -21 86 -21 87 0 127 -20 210 -109 73 -77 114 -88 160 -45 83 80 78 139 -24 251 -32 36 -66 90 -95 152 -62 133 -108 178 -143 136z"></path>
    <path d="M16467 29418 c-14 -18 -45 -76 -69 -128 -28 -60 -63 -115 -95 -150 -63 -69 -73 -89 -73 -140 0 -34 7 -48 42 -86 38 -42 46 -45 77 -40 26 4 54 24 105 75 90 87 117 101 204 101 72 0 92 10 92 45 0 27 -31 56 -93 85 -58 27 -87 76 -88 147 -1 115 -51 159 -102 91z"></path>
    <path d="M2071 28960 c-143 -30 -289 -99 -444 -209 -59 -42 -124 -86 -145 -99 -63 -38 -157 -62 -242 -62 -69 0 -87 4 -156 37 -153 73 -244 54 -367 -77 -68 -71 -124 -171 -148 -261 -21 -80 -2 -95 144 -109 79 -8 273 2 285 15 9 8 -19 62 -44 86 -27 25 -31 66 -13 118 13 38 28 39 68 6 44 -38 65 -101 59 -179 -13 -157 -109 -207 -355 -186 -109 10 -119 9 -143 -8 -41 -31 -63 -104 -58 -195 4 -71 10 -89 55 -175 74 -142 91 -258 58 -387 -35 -132 -146 -242 -264 -261 -33 -5 -48 -2 -86 21 -49 28 -85 76 -85 111 0 35 38 76 68 72 20 -2 28 -11 34 -35 9 -35 60 -78 83 -69 35 13 58 194 36 288 -6 27 -4 50 10 90 22 64 24 108 5 152 -21 51 -51 76 -90 76 -69 0 -111 -75 -157 -278 -10 -43 -20 -59 -56 -88 -65 -53 -91 -100 -108 -190 -13 -70 -15 -1488 -13 -11994 3 -11518 4 -11917 21 -11970 14 -43 33 -69 81 -116 54 -51 65 -68 76 -115 26 -110 61 -209 86 -238 50 -60 115 -48 154 29 25 49 25 91 1 163 -15 42 -17 64 -10 94 20 89 1 268 -32 289 -17 10 -62 -28 -84 -71 -11 -21 -26 -40 -33 -43 -19 -6 -72 53 -72 82 0 29 50 90 91 112 69 35 154 8 245 -77 73 -70 106 -146 112 -264 6 -110 -14 -196 -62 -275 -48 -78 -69 -159 -64 -239 5 -71 36 -144 65 -155 9 -4 81 -4 158 0 115 5 151 4 197 -10 97 -28 145 -108 136 -227 -5 -68 -44 -135 -84 -145 -34 -9 -46 6 -52 64 -4 44 -1 52 27 84 17 19 32 46 33 59 3 21 -2 24 -42 31 -69 10 -241 9 -301 -2 -30 -6 -63 -19 -74 -30 -17 -18 -18 -24 -7 -67 41 -161 171 -328 288 -373 52 -20 65 -21 112 -12 29 6 88 27 131 47 89 40 145 44 249 20 82 -20 135 -48 262 -140 125 -90 294 -177 405 -206 56 -15 113 -22 190 -23 96 -1 117 2 163 23 75 34 134 109 120 152 -3 8 -45 12 -135 13 l-132 1 -125 63 c-69 35 -126 69 -126 74 0 6 21 29 46 52 57 51 84 102 91 174 l6 55 -34 -5 c-19 -4 -59 -21 -88 -39 -44 -27 -66 -34 -121 -37 -56 -3 -76 0 -122 22 -58 27 -70 44 -84 116 -9 48 -22 70 -41 70 -9 0 -44 -27 -79 -60 -61 -59 -87 -70 -128 -54 -9 4 -21 15 -27 26 -8 16 -4 26 25 59 20 21 36 45 36 52 0 21 -50 62 -110 92 -91 46 -176 103 -213 144 -39 44 -55 109 -37 157 14 36 26 44 69 44 31 0 46 -12 145 -114 182 -187 419 -326 555 -326 52 0 63 6 79 37 23 43 -32 164 -108 238 -28 28 -46 56 -56 92 -19 64 -47 101 -91 120 -44 18 -67 10 -127 -43 -77 -70 -119 -58 -197 58 -93 136 -113 216 -80 322 26 86 27 150 1 220 -48 127 -166 165 -256 83 -49 -45 -55 -96 -20 -172 36 -78 35 -154 -2 -261 -49 -140 -134 -243 -245 -299 -28 -14 -65 -25 -83 -25 l-31 0 48 98 c74 147 101 252 102 392 1 133 -15 207 -68 317 -47 94 -130 180 -221 224 -62 31 -77 34 -154 34 -58 0 -99 -6 -127 -17 l-43 -18 0 11605 c0 6383 2 11605 4 11605 2 0 23 -7 47 -16 24 -8 76 -15 114 -15 118 0 209 43 297 141 125 138 179 343 144 546 -19 111 -65 242 -112 319 -19 32 -34 60 -34 62 0 3 19 3 42 -1 135 -22 287 -187 333 -363 23 -86 19 -159 -10 -221 -30 -64 -32 -107 -6 -145 78 -119 242 -83 285 63 21 71 20 120 -5 210 -25 92 -21 137 22 222 65 130 134 208 183 208 8 0 41 -23 73 -51 54 -47 61 -50 98 -46 54 8 110 66 120 127 6 34 20 57 67 107 124 133 136 263 24 263 -137 0 -433 -177 -572 -341 -90 -105 -138 -129 -185 -90 -20 16 -23 28 -23 73 1 29 9 68 18 86 21 41 96 97 216 161 95 51 130 80 130 108 0 8 -16 30 -35 50 -37 38 -36 61 5 83 39 21 62 11 126 -56 43 -46 68 -65 79 -60 19 7 45 65 45 99 0 38 36 74 98 97 77 29 145 24 210 -17 55 -34 110 -55 123 -47 14 8 11 66 -7 118 -11 32 -35 66 -72 103 -66 65 -70 58 71 129 118 60 188 77 301 73 l91 -4 -1 32 c-2 45 -34 84 -96 118 -49 27 -62 30 -163 32 -60 1 -130 -2 -154 -7z"></path>
    <path d="M16912 28955 c-81 -25 -142 -90 -142 -150 l0 -26 88 7 c54 4 109 2 142 -5 67 -14 280 -118 280 -137 0 -8 -24 -38 -54 -68 -58 -57 -76 -99 -76 -173 0 -29 4 -43 13 -43 7 0 53 21 103 46 82 42 94 45 145 41 31 -3 77 -16 107 -31 44 -23 53 -31 63 -68 21 -82 35 -113 50 -116 8 -1 44 27 80 63 70 69 96 78 137 49 30 -21 28 -45 -8 -79 -58 -56 -40 -82 114 -166 107 -58 178 -115 201 -160 22 -42 20 -124 -5 -149 -44 -44 -76 -27 -210 110 -199 205 -483 354 -590 310 -40 -17 -48 -51 -25 -115 20 -58 68 -130 96 -148 26 -16 55 -64 63 -105 12 -66 72 -122 130 -122 15 0 42 14 63 33 53 47 85 67 105 67 51 0 174 -173 203 -284 14 -57 14 -64 -6 -134 -48 -171 0 -322 111 -352 74 -20 159 28 181 100 10 32 7 46 -20 114 -35 88 -36 96 -16 191 41 195 193 367 345 391 l42 7 -26 -42 c-109 -171 -160 -430 -122 -611 31 -147 128 -297 236 -365 88 -56 219 -73 310 -41 25 9 48 16 53 16 4 0 7 -5223 7 -11606 0 -11050 -1 -11606 -17 -11599 -92 38 -169 44 -254 19 -143 -42 -259 -166 -316 -338 -24 -72 -27 -96 -27 -221 0 -132 2 -146 33 -240 34 -103 69 -179 103 -227 l19 -28 -34 0 c-53 0 -148 53 -209 118 -82 86 -140 211 -154 330 -5 52 -3 67 26 132 39 89 35 128 -16 177 -55 51 -142 56 -198 12 -71 -56 -96 -197 -57 -325 19 -60 20 -78 11 -118 -13 -60 -50 -134 -107 -213 -70 -100 -105 -107 -182 -39 -59 52 -79 60 -117 46 -48 -18 -84 -61 -101 -119 -11 -41 -29 -70 -68 -111 -59 -62 -91 -119 -101 -178 -18 -113 137 -109 341 10 111 64 246 171 304 239 67 80 106 109 147 109 44 0 64 -30 64 -94 0 -89 -43 -134 -220 -231 -58 -32 -113 -65 -122 -73 -27 -23 -22 -60 12 -92 35 -32 37 -50 12 -73 -39 -35 -77 -22 -147 49 -63 65 -66 66 -85 49 -10 -9 -24 -43 -31 -74 -14 -69 -21 -78 -84 -107 -81 -38 -151 -33 -241 16 -40 22 -82 40 -94 40 -17 0 -20 -6 -20 -47 1 -64 30 -125 85 -175 25 -22 45 -47 45 -54 0 -17 -147 -97 -230 -124 -54 -18 -82 -21 -170 -18 l-105 3 -4 -25 c-1 -14 5 -39 14 -57 41 -75 163 -120 301 -109 183 14 360 88 571 239 160 115 225 141 353 141 80 1 92 -2 170 -39 144 -67 224 -53 343 63 71 69 116 142 152 244 26 73 27 79 11 102 -10 15 -30 28 -53 33 -60 13 -350 10 -363 -3 -16 -16 -6 -44 30 -89 33 -41 35 -52 19 -107 -12 -44 -32 -49 -74 -16 -39 30 -55 76 -55 156 0 91 28 147 90 182 43 24 52 25 221 25 194 0 199 1 225 63 38 93 23 219 -40 322 -53 86 -69 154 -64 279 4 120 26 183 91 257 48 55 142 104 199 104 56 0 123 -45 144 -96 13 -30 13 -38 -1 -64 -17 -33 -49 -54 -70 -46 -7 2 -16 19 -20 35 -7 34 -67 87 -85 76 -34 -21 -53 -146 -39 -251 9 -68 8 -89 -5 -128 -34 -99 -11 -188 57 -226 25 -14 30 -13 64 5 46 25 64 61 105 210 18 66 37 122 43 124 5 2 33 27 60 55 57 57 71 93 86 218 6 55 9 4157 7 11953 -3 10870 -5 11875 -19 11928 -20 70 -58 127 -108 162 -36 24 -40 33 -66 133 -37 142 -51 177 -87 207 -100 84 -196 -54 -143 -206 13 -36 14 -59 6 -126 -14 -114 10 -253 44 -253 22 0 67 42 81 77 9 20 21 33 32 33 28 0 65 -46 65 -80 0 -52 -93 -130 -155 -130 -38 0 -123 45 -173 91 -26 24 -61 70 -78 104 -31 59 -32 63 -32 196 l0 136 60 118 c59 116 60 120 60 199 -1 60 -6 93 -22 128 -30 67 -43 71 -181 58 -257 -23 -352 35 -352 215 0 75 23 132 64 158 36 24 45 21 62 -18 22 -53 17 -79 -21 -125 -19 -23 -35 -50 -35 -61 0 -10 1 -19 3 -19 181 -20 343 -16 399 10 39 18 42 39 18 112 -35 102 -81 179 -150 249 -121 122 -201 137 -359 65 -83 -38 -85 -38 -180 -33 -124 6 -177 27 -311 123 -197 141 -329 207 -481 239 -86 18 -229 18 -287 0z"></path>
    <path d="M99 2684 c-23 -51 -35 -138 -25 -178 9 -38 42 -63 92 -71 28 -4 49 -14 59 -28 23 -33 18 -121 -11 -212 -24 -73 -26 -90 -21 -190 3 -60 13 -149 22 -196 l17 -86 -32 -52 c-82 -133 -140 -322 -140 -457 0 -138 46 -249 149 -357 69 -73 145 -119 243 -148 l77 -23 -30 -43 -30 -43 -37 24 c-20 14 -56 30 -80 37 -39 11 -45 10 -70 -8 -37 -27 -52 -89 -46 -183 5 -66 2 -89 -30 -192 -41 -134 -43 -157 -18 -188 29 -36 65 -29 121 23 27 25 77 60 112 77 69 35 100 36 222 9 103 -23 115 6 68 165 -17 57 -31 110 -31 118 0 8 19 41 43 74 l42 59 7 -100 c10 -154 48 -241 158 -359 57 -61 111 -98 174 -119 70 -24 213 -22 334 4 114 25 180 21 261 -16 60 -28 119 -33 127 -11 6 16 -17 66 -55 115 -14 18 -82 78 -152 132 -148 114 -183 153 -239 260 -82 158 -120 295 -120 434 0 77 21 218 45 299 21 70 19 93 -9 111 -23 15 -27 15 -66 -5 -175 -89 -494 -87 -695 5 -30 14 -63 25 -74 25 -19 0 -19 -2 -5 -52 24 -83 52 -134 104 -191 87 -95 202 -140 363 -141 l97 -1 0 -57 c0 -66 20 -170 51 -259 26 -75 107 -242 155 -317 19 -29 34 -57 34 -62 0 -30 -106 -40 -164 -16 -53 22 -115 85 -147 148 -36 72 -49 163 -42 297 6 108 -4 153 -39 172 -11 6 -56 7 -116 3 -214 -14 -338 34 -388 151 -47 113 -17 358 57 451 6 7 69 -3 201 -33 275 -61 337 -69 438 -55 94 13 178 48 215 88 49 53 23 132 -54 161 -42 16 -51 16 -165 -2 -162 -25 -276 -30 -350 -15 -184 36 -308 162 -339 346 -14 79 1 178 39 268 44 102 43 122 -11 202 -66 96 -130 169 -188 215 -65 52 -83 51 -108 -7z"></path>
    <path d="M19017 2661 c-79 -75 -183 -212 -196 -259 -6 -19 -4 -41 6 -68 63 -163 65 -175 61 -280 -3 -92 -6 -107 -41 -176 -43 -88 -94 -138 -181 -179 -116 -54 -227 -62 -433 -28 -183 29 -250 13 -272 -67 -18 -65 32 -121 140 -155 136 -42 215 -37 538 35 l193 43 34 -71 c78 -163 65 -389 -28 -472 -61 -56 -178 -80 -336 -70 -100 6 -103 6 -127 -18 -24 -25 -25 -28 -25 -179 0 -126 -4 -167 -20 -218 -43 -138 -148 -224 -263 -217 -31 3 -62 9 -68 15 -7 7 8 39 47 104 69 113 114 209 147 315 30 94 51 221 45 263 l-5 31 61 -6 c36 -3 94 1 142 9 139 25 240 87 303 185 30 47 71 150 71 180 0 19 -36 12 -116 -22 -98 -41 -196 -59 -334 -59 -135 -1 -212 13 -321 58 -63 25 -90 23 -103 -10 -3 -8 6 -57 19 -107 69 -259 50 -458 -66 -690 -62 -125 -95 -164 -229 -268 -170 -132 -244 -219 -227 -264 8 -20 75 -22 103 -2 11 8 46 22 78 31 65 19 116 17 236 -10 53 -12 106 -16 180 -13 132 5 188 28 277 116 120 118 169 221 181 379 l7 92 38 -51 c44 -61 46 -79 11 -198 -14 -49 -24 -106 -22 -127 3 -33 7 -38 29 -41 15 -2 54 4 87 12 33 9 79 16 102 16 52 0 135 -43 208 -106 60 -53 93 -56 126 -11 22 30 24 17 -28 191 -20 69 -26 109 -26 187 0 113 -15 163 -54 181 -32 14 -86 0 -141 -37 -41 -29 -40 -29 -80 37 -16 27 -15 28 12 34 229 50 405 231 436 449 20 136 -31 339 -126 506 l-43 75 12 59 c21 103 35 262 28 317 -4 29 -16 78 -27 108 -13 33 -21 80 -22 116 0 74 18 99 76 109 87 15 115 78 85 195 -18 69 -39 100 -68 100 -10 0 -51 -31 -91 -69z"></path>
    <path d="M2885 1536 c-16 -8 -50 -35 -75 -61 -86 -90 -113 -105 -197 -105 -59 0 -77 -4 -93 -20 -34 -34 -10 -71 68 -108 29 -14 61 -36 69 -49 9 -13 22 -62 29 -110 9 -61 18 -92 33 -106 l21 -21 26 20 c27 20 46 52 103 174 17 36 57 96 91 134 61 71 79 113 65 157 -12 36 -47 79 -77 95 -32 16 -26 17 -63 0z"></path>
    <path d="M16291 1524 c-39 -33 -61 -74 -61 -114 0 -40 11 -60 76 -137 54 -63 92 -128 113 -194 13 -42 76 -119 97 -119 25 0 47 50 54 126 9 92 26 118 104 159 62 33 76 48 76 83 0 30 -33 42 -114 42 -53 0 -70 5 -110 31 -26 17 -65 53 -88 80 -22 27 -50 51 -62 55 -11 3 -28 8 -37 10 -9 3 -31 -7 -48 -22z"></path>
    <path d="M1546 1404 c-117 -147 -153 -384 -92 -608 14 -55 46 -141 70 -192 116 -244 263 -379 473 -435 98 -26 272 -28 388 -5 148 30 206 19 358 -68 72 -41 78 -43 87 -26 17 32 11 126 -12 187 -17 45 -38 75 -100 136 l-79 79 6 116 c20 345 -105 642 -313 744 -63 31 -73 33 -172 33 -86 -1 -116 -5 -163 -24 -113 -45 -195 -136 -212 -237 -9 -56 19 -170 58 -235 34 -58 96 -99 148 -99 32 0 43 -24 58 -123 13 -90 31 -117 77 -117 45 0 93 22 130 61 40 42 38 92 -8 194 -35 78 -36 82 -31 171 9 143 -22 169 -113 94 -38 -31 -57 -40 -86 -40 -34 0 -38 3 -38 24 0 29 41 81 79 100 14 8 51 19 81 26 110 24 192 -25 249 -150 42 -91 75 -247 67 -319 -13 -114 -92 -217 -204 -269 -46 -21 -72 -26 -137 -26 -92 1 -162 24 -237 79 -106 78 -223 260 -268 415 -28 97 -38 300 -20 405 12 69 8 145 -8 145 -4 0 -20 -16 -36 -36z"></path>
    <path d="M17664 1426 c-11 -28 -9 -70 5 -156 17 -96 9 -259 -18 -363 -58 -222 -221 -430 -386 -493 -77 -29 -184 -25 -260 9 -72 34 -137 94 -173 162 -24 44 -27 61 -27 145 0 106 19 191 64 285 35 74 78 119 137 141 37 14 53 15 100 5 74 -14 133 -48 157 -89 25 -42 17 -62 -27 -62 -25 0 -47 11 -82 40 -92 76 -120 52 -117 -96 2 -98 1 -105 -32 -177 -19 -42 -35 -90 -35 -107 0 -70 70 -133 147 -134 60 -1 79 25 93 122 12 90 23 112 55 112 133 0 242 217 193 384 -18 61 -116 156 -193 187 -50 20 -78 23 -170 24 -100 0 -115 -3 -165 -27 -76 -38 -129 -85 -184 -165 -93 -138 -138 -319 -135 -548 1 -77 1 -145 0 -151 0 -6 -37 -47 -80 -90 -72 -72 -81 -85 -101 -152 -16 -51 -20 -85 -16 -115 11 -71 16 -73 82 -31 143 92 227 109 374 78 101 -22 284 -22 375 0 157 38 303 141 397 280 55 79 132 245 158 336 31 107 38 292 16 393 -20 89 -62 177 -110 233 -31 35 -35 37 -42 20z"></path>
    <path d="M3154 1162 c-104 -36 -195 -143 -235 -274 -53 -172 12 -406 156 -566 52 -58 155 -115 246 -137 196 -46 517 21 445 93 -10 10 -50 18 -122 23 -300 24 -476 132 -556 341 -13 36 -20 77 -20 128 0 123 40 203 109 216 53 10 90 -12 119 -69 l26 -50 -51 -51 c-61 -62 -65 -89 -20 -140 23 -27 43 -37 84 -46 30 -6 64 -8 75 -5 16 5 30 -3 62 -40 22 -25 58 -55 79 -65 38 -20 96 -20 6076 -20 l6038 0 45 23 c25 13 58 41 75 63 29 38 32 39 91 40 92 2 142 36 159 106 6 23 -1 35 -46 83 l-52 55 18 40 c23 51 44 70 87 76 52 9 95 -18 121 -74 18 -38 22 -66 22 -143 0 -90 -2 -99 -39 -174 -52 -105 -113 -165 -219 -216 -95 -45 -237 -79 -337 -79 -96 0 -141 -39 -87 -75 75 -49 308 -71 427 -41 193 49 319 170 390 377 36 102 46 189 31 270 -30 172 -161 323 -298 345 -105 16 -201 -59 -272 -212 -72 -157 -85 -178 -120 -201 l-34 -23 -5994 0 c-5951 0 -5994 0 -6033 20 -40 20 -42 25 -119 195 -47 103 -100 168 -162 199 -62 30 -95 32 -165 8z"></path>
  </g>
</svg>
