<?xml version="1.0" encoding="iso-8859-1"?>
<!-- Uploaded to: SVG Repo, www.svgrepo.com, Generator: SVG Repo Mixer Tools -->
<svg fill="#000000" height="20px" width="20px" version="1.1" id="Layer_1" xmlns="http://www.w3.org/2000/svg" xmlns:xlink="http://www.w3.org/1999/xlink" 
	 viewBox="0 0 500.925 500.925" xml:space="preserve">
<g>
	<g>
		<path d="M473.286,139.325c-21.333-22.4-51.2-30.933-82.133-27.733c4.267-30.933-4.267-61.867-25.6-83.2
			c-39.467-40.533-105.6-37.333-154.667,7.467c-23.467,21.333-37.333,66.133-41.6,136.533
			c-10.667,4.267-21.333,11.733-29.867,20.267c-22.4,21.333-30.933,52.267-27.733,83.2c-30.933-4.267-61.867,4.267-83.2,25.6
			C-10.98,340.925-7.78,408.125,35.953,457.191c26.667,28.8,89.6,43.733,190.933,43.733c45.867,0,81.067-3.2,82.133-2.133
			c9.6-1.067,18.133-8.533,19.2-18.133c2.133-11.733,10.667-76.8,7.467-144c60.8-4.267,103.467-18.133,125.867-41.6
			c23.466-22.4,37.333-54.4,38.4-85.333C501.02,183.058,491.42,157.458,473.286,139.325z M289.82,457.191
			c-14.933,1.067-37.333,2.133-62.933,2.133c-82.133,0-141.867-10.667-158.933-29.867c-28.8-32-33.067-74.667-9.6-98.133
			c12.8-12.8,27.733-14.933,38.4-14.933c11.733,0,24.533,3.2,36.267,8.533c7.467,4.267,18.133,3.2,24.533-3.2
			c6.4-6.4,8.533-16,4.267-24.533c-13.867-26.667-11.733-57.6,6.4-75.733c10.667-9.6,24.533-14.933,39.467-14.933
			c20.267,0,41.6,9.6,56.533,25.6C302.62,273.725,297.286,396.392,289.82,457.191z M433.82,265.191
			c-17.067,17.067-52.267,27.733-102.4,30.933c-5.333-36.267-17.067-69.333-37.333-91.733c-21.333-24.533-51.2-38.4-82.133-39.467
			c6.4-70.4,21.333-92.8,27.733-98.133c32-28.8,74.667-33.067,97.067-9.6c18.133,19.2,20.267,49.067,5.333,76.8
			c-4.267,7.467-3.2,18.133,3.2,24.533c6.4,7.467,16,8.533,24.533,4.267c26.667-14.933,56.533-11.733,74.667,6.4
			c9.6,9.6,14.933,24.533,14.933,40.533C459.42,229.991,449.82,250.258,433.82,265.191z"/>
	</g>
</g>
</svg>